<svg width="24" height="24" viewBox="0 0 24 24" fill="none" xmlns="http://www.w3.org/2000/svg">
<path d="M21.6485 16.3663L18.255 15.9788C17.856 15.932 17.4515 15.9761 17.072 16.108C16.6925 16.2399 16.3478 16.4561 16.0639 16.7404L13.6056 19.1986C9.8129 17.2697 6.73015 14.187 4.80123 10.3943L7.27287 7.92261C7.84736 7.34812 8.12792 6.54651 8.0344 5.73154L7.64696 2.36476C7.57121 1.71302 7.25843 1.11189 6.76817 0.675825C6.27791 0.239763 5.6444 -0.000777906 4.98827 1.89005e-06H2.67695C1.16725 1.89005e-06 -0.0886137 1.25586 0.00490785 2.76557C0.713 14.1752 9.83803 23.2869 21.2343 23.995C22.744 24.0885 23.9999 22.8326 23.9999 21.3229V19.0116C24.0132 17.6622 22.9979 16.5266 21.6485 16.3663Z" fill="#1A618B"/>
</svg>
