<svg width="28" height="28" viewBox="0 0 28 28" fill="none" xmlns="http://www.w3.org/2000/svg">
<path d="M25.2565 19.094L21.2975 18.642C20.8319 18.5873 20.3601 18.6388 19.9173 18.7927C19.4746 18.9466 19.0725 19.1988 18.7412 19.5304L15.8732 22.3984C11.4484 20.148 7.85184 16.5515 5.60143 12.1266L8.48501 9.24305C9.15525 8.57281 9.48258 7.6376 9.37347 6.68679L8.92145 2.75889C8.83308 1.99852 8.46817 1.2972 7.8962 0.788463C7.32422 0.279723 6.58514 -0.000907557 5.81965 2.20506e-06H3.12311C1.36179 2.20506e-06 -0.103383 1.46517 0.00572582 3.2265C0.831833 16.5377 11.4777 27.168 24.7734 27.9941C26.5347 28.1032 27.9998 26.6381 27.9998 24.8767V22.1802C28.0154 20.6059 26.8308 19.281 25.2565 19.094Z" fill="white"/>
</svg>
