<svg width="31" height="35" viewBox="0 0 31 35" fill="none" xmlns="http://www.w3.org/2000/svg">
<path d="M9.33333 16C7.56522 16 5.86953 15.2976 4.61929 14.0474C3.36904 12.7971 2.66667 11.1014 2.66667 9.33333V4C2.66667 3.64638 2.80714 3.30724 3.05719 3.05719C3.30724 2.80714 3.64638 2.66667 4 2.66667H5.33333C5.68695 2.66667 6.02609 2.52619 6.27614 2.27614C6.52619 2.02609 6.66666 1.68696 6.66666 1.33333C6.66666 0.979711 6.52619 0.640573 6.27614 0.390524C6.02609 0.140476 5.68695 0 5.33333 0H4C2.93913 0 1.92172 0.421427 1.17157 1.17157C0.421427 1.92172 0 2.93913 0 4V9.33333C0.00171389 10.8396 0.369029 12.323 1.0704 13.6561C1.77177 14.9892 2.78623 16.1321 4.02667 16.9867C5.21844 18.0374 6.18494 19.3187 6.86785 20.7532C7.55075 22.1878 7.93588 23.7458 8 25.3333C8 27.8087 8.98333 30.1827 10.7337 31.933C12.484 33.6833 14.858 34.6667 17.3333 34.6667C19.8087 34.6667 22.1826 33.6833 23.933 31.933C25.6833 30.1827 26.6667 27.8087 26.6667 25.3333V23.8133C27.9235 23.4888 29.0189 22.717 29.7475 21.6427C30.476 20.5683 30.7877 19.2651 30.6241 17.9773C30.4606 16.6896 29.833 15.5057 28.859 14.6476C27.885 13.7895 26.6314 13.316 25.3333 13.316C24.0352 13.316 22.7817 13.7895 21.8077 14.6476C20.8337 15.5057 20.2061 16.6896 20.0425 17.9773C19.8789 19.2651 20.1906 20.5683 20.9192 21.6427C21.6477 22.717 22.7431 23.4888 24 23.8133V25.3333C24 27.1014 23.2976 28.7971 22.0474 30.0474C20.7971 31.2976 19.1014 32 17.3333 32C15.5652 32 13.8695 31.2976 12.6193 30.0474C11.369 28.7971 10.6667 27.1014 10.6667 25.3333C10.7342 23.7439 11.1235 22.1846 11.811 20.7499C12.4985 19.3153 13.47 18.035 14.6667 16.9867C15.9022 16.1291 16.9114 14.9849 17.6081 13.652C18.3047 12.3191 18.6679 10.8373 18.6667 9.33333V4C18.6667 2.93913 18.2452 1.92172 17.4951 1.17157C16.7449 0.421427 15.7275 0 14.6667 0H13.3333C12.9797 0 12.6406 0.140476 12.3905 0.390524C12.1405 0.640573 12 0.979711 12 1.33333C12 1.68696 12.1405 2.02609 12.3905 2.27614C12.6406 2.52619 12.9797 2.66667 13.3333 2.66667H14.6667C15.0203 2.66667 15.3594 2.80714 15.6095 3.05719C15.8595 3.30724 16 3.64638 16 4V9.33333C16 10.2088 15.8276 11.0757 15.4925 11.8846C15.1575 12.6934 14.6664 13.4283 14.0474 14.0474C13.4283 14.6664 12.6934 15.1575 11.8846 15.4925C11.0757 15.8276 10.2088 16 9.33333 16ZM25.3333 21.3333C24.6261 21.3333 23.9478 21.0524 23.4477 20.5523C22.9476 20.0522 22.6667 19.3739 22.6667 18.6667C22.6667 17.9594 22.9476 17.2811 23.4477 16.781C23.9478 16.281 24.6261 16 25.3333 16C26.0406 16 26.7188 16.281 27.2189 16.781C27.719 17.2811 28 17.9594 28 18.6667C28 19.3739 27.719 20.0522 27.2189 20.5523C26.7188 21.0524 26.0406 21.3333 25.3333 21.3333Z" fill="white"/>
</svg>
