<svg width="34" height="19" viewBox="0 0 34 19" fill="none" xmlns="http://www.w3.org/2000/svg">
<path d="M31.1667 0H12.75C11.1917 0 9.91667 1.275 9.91667 2.83333V15.5833C9.91667 16.3348 10.2152 17.0554 10.7465 17.5868C11.2779 18.1181 11.9986 18.4167 12.75 18.4167H31.1667C32.7392 18.4167 34 17.1558 34 15.5833V2.83333C34 2.08189 33.7015 1.36122 33.1701 0.829864C32.6388 0.298511 31.9181 0 31.1667 0ZM31.1667 15.5833H12.75V5.19916L21.9583 9.91666L31.1667 5.19916V15.5833ZM21.9583 7.5225L12.75 2.83333H31.1667L21.9583 7.5225ZM7.08333 15.5833C7.08333 15.8242 7.12583 16.0508 7.15417 16.2917H1.41667C0.634667 16.2917 0 15.6542 0 14.875C0 14.0958 0.634667 13.4583 1.41667 13.4583H7.08333V15.5833ZM4.25 2.125H7.15417C7.12583 2.36583 7.08333 2.5925 7.08333 2.83333V4.95833H4.25C3.47083 4.95833 2.83333 4.32083 2.83333 3.54167C2.83333 2.7625 3.47083 2.125 4.25 2.125ZM1.41667 9.20833C1.41667 8.42916 2.05417 7.79166 2.83333 7.79166H7.08333V10.625H2.83333C2.05417 10.625 1.41667 9.9875 1.41667 9.20833Z" fill="#1A618B"/>
</svg>
