<svg width="26" height="26" viewBox="0 0 26 26" fill="none" xmlns="http://www.w3.org/2000/svg">
<path d="M13 26L8.66667 22.2857H2.88889C2.09444 22.2857 1.41411 22.0435 0.847889 21.559C0.282629 21.0736 0 20.4905 0 19.8095V2.47619C0 1.79524 0.282629 1.2121 0.847889 0.726762C1.41411 0.242254 2.09444 0 2.88889 0H23.1111C23.9056 0 24.5859 0.242254 25.1521 0.726762C25.7174 1.2121 26 1.79524 26 2.47619V19.8095C26 20.4905 25.7174 21.0736 25.1521 21.559C24.5859 22.0435 23.9056 22.2857 23.1111 22.2857H17.3333L13 26ZM2.88889 19.8095H9.82222L13 22.5333L16.1778 19.8095H23.1111V2.47619H2.88889V19.8095ZM12.9278 18.3238C13.4333 18.3238 13.8609 18.1744 14.2104 17.8756C14.559 17.576 14.7333 17.2095 14.7333 16.7762C14.7333 16.3429 14.559 15.9764 14.2104 15.6768C13.8609 15.378 13.4333 15.2286 12.9278 15.2286C12.4222 15.2286 11.9947 15.378 11.6451 15.6768C11.2965 15.9764 11.1222 16.3429 11.1222 16.7762C11.1222 17.2095 11.2965 17.576 11.6451 17.8756C11.9947 18.1744 12.4222 18.3238 12.9278 18.3238ZM14.3 13.5571C14.3 12.8143 14.3963 12.2675 14.5889 11.9167C14.7815 11.5659 15.1907 11.1222 15.8167 10.5857C16.6593 9.86349 17.2553 9.25971 17.6049 8.77438C17.9535 8.28987 18.1278 7.7381 18.1278 7.11905C18.1278 6.0254 17.6944 5.14305 16.8278 4.472C15.9611 3.80178 14.7935 3.46667 13.325 3.46667C12.0009 3.46667 10.8757 3.74524 9.94933 4.30238C9.022 4.85952 8.37778 5.63333 8.01667 6.62381L10.4 7.42857C10.5685 6.87143 10.9056 6.42241 11.4111 6.08152C11.9167 5.74146 12.5065 5.57143 13.1806 5.57143C13.8306 5.57143 14.3722 5.72083 14.8056 6.01962C15.2389 6.31924 15.4556 6.71667 15.4556 7.21191C15.4556 7.5627 15.3231 7.93413 15.0583 8.32619C14.7935 8.71826 14.3481 9.15159 13.7222 9.62619C12.9278 10.2246 12.3803 10.797 12.0799 11.3434C11.7785 11.8907 11.6278 12.6286 11.6278 13.5571H14.3Z" fill="#ED1C24"/>
</svg>
