<svg width="42" height="30" viewBox="0 0 42 30" fill="none" xmlns="http://www.w3.org/2000/svg">
<path d="M24.6667 16.8333C23.1389 16.8333 21.8403 16.2986 20.7709 15.2292C19.7014 14.1597 19.1667 12.8611 19.1667 11.3333C19.1667 9.80555 19.7014 8.50694 20.7709 7.43749C21.8403 6.36805 23.1389 5.83333 24.6667 5.83333C26.1945 5.83333 27.4931 6.36805 28.5625 7.43749C29.632 8.50694 30.1667 9.80555 30.1667 11.3333C30.1667 12.8611 29.632 14.1597 28.5625 15.2292C27.4931 16.2986 26.1945 16.8333 24.6667 16.8333ZM11.8334 22.3333C10.825 22.3333 9.96213 21.974 9.24469 21.2553C8.52602 20.5379 8.16669 19.675 8.16669 18.6667V3.99999C8.16669 2.99166 8.52602 2.12877 9.24469 1.41133C9.96213 0.692661 10.825 0.333328 11.8334 0.333328H37.5C38.5084 0.333328 39.3719 0.692661 40.0905 1.41133C40.808 2.12877 41.1667 2.99166 41.1667 3.99999V18.6667C41.1667 19.675 40.808 20.5379 40.0905 21.2553C39.3719 21.974 38.5084 22.3333 37.5 22.3333H11.8334ZM15.5 18.6667H33.8334C33.8334 17.6583 34.1921 16.7948 34.9095 16.0762C35.6282 15.3587 36.4917 15 37.5 15V7.66666C36.4917 7.66666 35.6282 7.30733 34.9095 6.58866C34.1921 5.87122 33.8334 5.00833 33.8334 3.99999H15.5C15.5 5.00833 15.1407 5.87122 14.422 6.58866C13.7046 7.30733 12.8417 7.66666 11.8334 7.66666V15C12.8417 15 13.7046 15.3587 14.422 16.0762C15.1407 16.7948 15.5 17.6583 15.5 18.6667ZM35.6667 29.6667H4.50002C3.49169 29.6667 2.6288 29.3079 1.91136 28.5905C1.19269 27.8718 0.833355 27.0083 0.833355 26V5.83333H4.50002V26H35.6667V29.6667Z" fill="white"/>
</svg>
