<svg width="34" height="34" viewBox="0 0 34 34" fill="none" xmlns="http://www.w3.org/2000/svg">
<path d="M8.5 4.25C8.5 3.12283 8.94777 2.04183 9.7448 1.2448C10.5418 0.447766 11.6228 0 12.75 0H21.25C22.3772 0 23.4582 0.447766 24.2552 1.2448C25.0522 2.04183 25.5 3.12283 25.5 4.25V8.5H29.75C30.8772 8.5 31.9582 8.94777 32.7552 9.7448C33.5522 10.5418 34 11.6228 34 12.75V21.25C34 22.3772 33.5522 23.4582 32.7552 24.2552C31.9582 25.0522 30.8772 25.5 29.75 25.5H25.5V29.75C25.5 30.8772 25.0522 31.9582 24.2552 32.7552C23.4582 33.5522 22.3772 34 21.25 34H12.75C11.6228 34 10.5418 33.5522 9.7448 32.7552C8.94777 31.9582 8.5 30.8772 8.5 29.75V25.5H4.25C3.12283 25.5 2.04183 25.0522 1.2448 24.2552C0.447766 23.4582 0 22.3772 0 21.25V12.75C0 11.6228 0.447766 10.5418 1.2448 9.7448C2.04183 8.94777 3.12283 8.5 4.25 8.5H8.5V4.25ZM21.25 4.25H12.75V10.625C12.75 11.1886 12.5261 11.7291 12.1276 12.1276C11.7291 12.5261 11.1886 12.75 10.625 12.75H4.25V21.25H10.625C11.1886 21.25 11.7291 21.4739 12.1276 21.8724C12.5261 22.2709 12.75 22.8114 12.75 23.375V29.75H21.25V23.375C21.25 22.8114 21.4739 22.2709 21.8724 21.8724C22.2709 21.4739 22.8114 21.25 23.375 21.25H29.75V12.75H23.375C22.8114 12.75 22.2709 12.5261 21.8724 12.1276C21.4739 11.7291 21.25 11.1886 21.25 10.625V4.25Z" fill="white"/>
</svg>
