<svg width="37" height="37" viewBox="0 0 37 37" fill="none" xmlns="http://www.w3.org/2000/svg">
<path d="M32.2402 4.7598H32.2377L36.323 5.57636C36.5424 5.62023 36.7227 5.78111 36.7861 5.99805C36.8181 6.10343 36.821 6.21551 36.7944 6.32238C36.7678 6.42926 36.7127 6.52692 36.635 6.60498L33.2883 9.95411C32.8879 10.3538 32.3452 10.5782 31.7795 10.5781H29.0056L22.0344 17.5518C22.1674 18.054 22.1918 18.5787 22.1061 19.0911C22.0204 19.6035 21.8265 20.0917 21.5373 20.5233C21.2481 20.9548 20.8703 21.3198 20.429 21.5939C19.9877 21.8679 19.493 22.0448 18.978 22.1127C18.4629 22.1806 17.9393 22.138 17.4421 21.9877C16.9448 21.8374 16.4853 21.5829 16.0941 21.241C15.7029 20.8992 15.3891 20.4779 15.1735 20.0053C14.9579 19.5326 14.8455 19.0195 14.8438 18.5C14.8441 17.9391 14.9734 17.3858 15.2217 16.8829C15.47 16.3799 15.8306 15.9408 16.2756 15.5994C16.7207 15.258 17.2382 15.0235 17.7883 14.9141C18.3385 14.8046 18.9064 14.8231 19.4482 14.968L26.4219 7.99192V5.22048C26.4219 4.65498 26.6461 4.11142 27.0459 3.71167L30.395 0.362547C30.4731 0.284862 30.5707 0.229785 30.6776 0.203175C30.7845 0.176564 30.8966 0.179414 31.0019 0.211422C31.2189 0.274797 31.3798 0.455172 31.4236 0.674547L32.2402 4.7598Z" fill="#1A618B"/>
<path d="M3.87494 18.5C3.87745 20.5913 4.32842 22.6577 5.19745 24.5599C6.06648 26.462 7.33334 28.1557 8.91259 29.5266C10.4918 30.8976 12.3467 31.9139 14.3521 32.507C16.3575 33.1001 18.4668 33.2562 20.5377 32.9648C22.6086 32.6734 24.5929 31.9413 26.3568 30.8178C28.1207 29.6943 29.6231 28.2056 30.7627 26.4521C31.9023 24.6987 32.6526 22.7211 32.963 20.653C33.2733 18.5849 33.1366 16.4743 32.5619 14.4635C32.4812 14.2286 32.4492 13.9797 32.4677 13.732C32.4863 13.4843 32.5551 13.243 32.6699 13.0227C32.7847 12.8025 32.9432 12.6079 33.1356 12.4508C33.328 12.2937 33.5504 12.1775 33.7891 12.1091C34.0279 12.0407 34.2781 12.0216 34.5245 12.053C34.7709 12.0844 35.0084 12.1656 35.2224 12.2917C35.4364 12.4178 35.6225 12.5861 35.7694 12.7864C35.9163 12.9867 36.0208 13.2148 36.0768 13.4568C37.1895 17.3508 36.9782 21.504 35.4758 25.2649C33.9734 29.0257 31.2651 32.1815 27.7756 34.237C24.2862 36.2925 20.2131 37.1315 16.1954 36.6223C12.1777 36.1131 8.44267 34.2846 5.57632 31.4236C2.71309 28.558 0.882607 24.8226 0.372264 20.804C-0.138079 16.7853 0.700616 12.711 2.75667 9.22061C4.81273 5.73026 7.96971 3.02154 11.732 1.51974C15.4942 0.0179461 19.6487 -0.191887 23.5431 0.923188C24.0068 1.05874 24.398 1.37234 24.6312 1.79545C24.8644 2.21856 24.9207 2.71678 24.7877 3.18123C24.6546 3.64568 24.3432 4.03859 23.9213 4.27409C23.4995 4.5096 23.0016 4.56855 22.5364 4.43806C20.3587 3.81325 18.0657 3.70282 15.838 4.1155C13.6103 4.52817 11.509 5.45266 9.69957 6.81608C7.89018 8.17951 6.42223 9.94459 5.41144 11.9722C4.40066 13.9998 3.87467 16.2344 3.87494 18.5Z" fill="#1A618B"/>
<path d="M11.1877 18.5C11.1878 19.8323 11.5517 21.1393 12.2401 22.28C12.9285 23.4207 13.9153 24.3518 15.094 24.9728C16.2727 25.5939 17.5985 25.8814 18.9286 25.8043C20.2587 25.7272 21.5425 25.2884 22.6415 24.5352C23.7403 23.7802 24.6118 22.7391 25.1617 21.5246C25.7116 20.3101 25.919 18.9683 25.7615 17.6444C25.7189 17.3232 25.7627 16.9963 25.8884 16.6976C26.014 16.3989 26.2171 16.1391 26.4765 15.945C26.736 15.7508 27.0425 15.6293 27.3646 15.593C27.6866 15.5566 28.0125 15.6068 28.3087 15.7383C28.6048 15.8681 28.8612 16.0741 29.0518 16.3353C29.2423 16.5965 29.3602 16.9035 29.3934 17.2252C29.6582 19.4874 29.2123 21.776 28.1174 23.7733C27.0225 25.7706 25.333 27.3775 23.2834 28.3709C21.2338 29.3644 18.9257 29.6952 16.6796 29.3174C14.4335 28.9396 12.3606 27.8719 10.7488 26.2626C9.13705 24.6532 8.06623 22.582 7.68501 20.3365C7.30379 18.0909 7.63108 15.7824 8.62145 13.7313C9.61183 11.6801 11.2162 9.98821 13.2118 8.8903C15.2074 7.79238 17.4953 7.34294 19.7579 7.60435C20.0002 7.62683 20.2356 7.69745 20.4502 7.81207C20.6648 7.92668 20.8544 8.08299 21.0079 8.27183C21.1613 8.46067 21.2755 8.67823 21.3437 8.91178C21.412 9.14532 21.433 9.39015 21.4054 9.63189C21.3778 9.87364 21.3022 10.1075 21.1831 10.3196C21.064 10.5318 20.9037 10.718 20.7117 10.8675C20.5197 11.0169 20.2997 11.1265 20.0648 11.1898C19.8299 11.2531 19.5847 11.2689 19.3436 11.2362C18.319 11.1173 17.2808 11.2164 16.2973 11.5271C15.3137 11.8379 14.407 12.3532 13.6368 13.0392C12.8665 13.7252 12.2501 14.5664 11.828 15.5076C11.4059 16.4487 11.1877 17.4685 11.1877 18.5Z" fill="#1A618B"/>
</svg>
